<svg width="33" height="33" viewBox="0 0 33 33" fill="none" xmlns="http://www.w3.org/2000/svg">
<circle cx="16.5" cy="16.5" r="16.5" fill="black"/>
<path d="M19 10.875H9.625V19H19V10.875Z" fill="#656565" stroke="white" stroke-width="0.795455" stroke-linecap="round" stroke-linejoin="round"/>
<path d="M19 14H21.5L23.375 15.875V19H19V14Z" fill="#494949" stroke="white" stroke-width="0.795455" stroke-linecap="round" stroke-linejoin="round"/>
<path d="M12.4375 22.125C13.3004 22.125 14 21.4254 14 20.5625C14 19.6996 13.3004 19 12.4375 19C11.5746 19 10.875 19.6996 10.875 20.5625C10.875 21.4254 11.5746 22.125 12.4375 22.125Z" stroke="white" stroke-width="0.8" stroke-linecap="round" stroke-linejoin="round"/>
<path d="M20.5625 22.125C21.4254 22.125 22.125 21.4254 22.125 20.5625C22.125 19.6996 21.4254 19 20.5625 19C19.6996 19 19 19.6996 19 20.5625C19 21.4254 19.6996 22.125 20.5625 22.125Z" stroke="white" stroke-width="0.8" stroke-linecap="round" stroke-linejoin="round"/>
</svg>
