<svg width="143" height="36" viewBox="0 0 143 36" fill="none" xmlns="http://www.w3.org/2000/svg">
<path fill-rule="evenodd" clip-rule="evenodd" d="M26.663 13.3316C26.663 5.96882 20.6942 0 13.3315 0C5.96876 0 -6.10352e-05 5.96882 -6.10352e-05 13.3316C-6.10352e-05 20.6943 5.96876 26.6631 13.3315 26.6631C13.3821 26.6631 13.4321 26.6616 13.4825 26.6612C12.7243 24.8009 12.5207 23.7482 12.5249 22.6726C10.1049 22.3872 8.33157 21.5532 7.0488 20.518C5.06738 18.9188 4.25824 16.8384 4.03418 15.5322C3.74342 13.8378 3.81207 12.3337 4.14177 11.0148C4.67549 8.87989 5.89041 7.24158 7.37414 6.06833C8.84445 4.90558 10.579 4.20337 12.1707 3.93038C13.2909 3.73815 14.3539 3.75575 15.2208 3.97254C15.574 4.0609 15.7888 4.4187 15.7006 4.77199C15.6122 5.12511 15.2544 5.33995 14.9012 5.25175C14.208 5.07842 13.3342 5.06841 12.3926 5.22995C10.9942 5.46999 9.47348 6.08432 8.1891 7.09991C6.91828 8.10483 5.87798 9.50747 5.42115 11.3346C5.13377 12.484 5.07594 13.8065 5.33408 15.3104C5.52114 16.4009 6.20154 18.1417 7.87426 19.4918C8.97304 20.3783 10.5018 21.0963 12.6039 21.3567L12.6367 21.0117C12.7096 20.2517 12.7978 19.3341 12.8183 18.0774C12.8391 16.8036 12.372 15.6831 11.713 14.7547C10.7262 13.3642 9.32131 12.4043 8.43625 11.9817C8.1072 11.8252 7.96763 11.4314 8.12416 11.1025C8.28069 10.7734 8.67452 10.6339 9.00341 10.7904C9.86699 11.2028 11.1596 12.0585 12.2271 13.2833C12.2768 12.1199 12.5477 10.8621 13.1748 9.6396C14.1272 7.78257 15.8894 6.01244 18.9238 4.7938C19.2612 4.65859 19.6447 4.82255 19.7799 5.16L19.7806 5.16145C19.8205 5.24998 19.8607 5.3448 19.9006 5.44512C20.4527 6.83095 20.7829 8.92852 20.1128 11.072C19.898 11.7593 19.5814 12.451 19.1381 13.1245C19.6562 13.0027 20.2127 12.914 20.8107 12.8637C21.1864 12.8321 21.5761 12.8156 21.9794 12.8156C22.3438 12.8156 22.6395 13.1112 22.6395 13.4758C22.6395 13.5033 22.6377 13.5304 22.6345 13.5572C22.5597 15.3577 21.8323 18.1851 19.7999 20.2173C18.4448 21.5726 16.522 22.576 13.8486 22.6967C13.8573 23.6677 14.0671 24.6453 14.8052 26.4105C14.828 26.4649 14.8427 26.5208 14.8501 26.5767C21.498 25.8229 26.6634 20.1812 26.6634 13.3317L26.663 13.3316ZM13.5691 26.6599C13.6412 26.6586 13.713 26.6568 13.7848 26.6544C13.713 26.6568 13.641 26.6587 13.5691 26.6599ZM13.8709 26.6511C13.9712 26.6471 14.0712 26.6421 14.1708 26.6358C14.0712 26.6419 13.9712 26.6471 13.8709 26.6511ZM14.235 26.6318C14.3132 26.6266 14.3913 26.6206 14.4692 26.614C14.3913 26.6206 14.3132 26.6264 14.235 26.6318ZM14.5752 26.6046C14.6529 26.5974 14.7304 26.5898 14.8076 26.5812C14.7302 26.5898 14.6529 26.5975 14.5752 26.6046ZM18.8543 10.6797C19.3673 9.03868 19.1884 7.43268 18.8046 6.27687C16.4781 7.33947 15.1021 8.76165 14.3453 10.2376C13.3255 12.2261 13.4111 14.3234 13.805 15.7619L13.8691 15.7328C16.8491 14.3702 18.285 12.5004 18.8543 10.6799V10.6797ZM18.8663 19.2836C20.3976 17.7522 21.073 15.6937 21.2648 14.1546C21.1473 14.1609 21.032 14.169 20.9188 14.1783C18.1443 14.4114 16.4261 15.5705 15.4056 16.9914C14.3957 18.398 14.0498 20.0727 14.0389 21.3681C16.203 21.2148 17.7628 20.3869 18.8663 19.2834V19.2836Z" fill="url(#paint0_linear)"/>
<path d="M52.6406 8.15701C52.6406 8.75922 52.4739 9.42056 52.1405 10.1412C51.8071 10.8616 51.3661 11.5554 50.8177 12.2221C50.2692 12.8889 49.6507 13.4965 48.9624 14.0451C48.2741 14.5935 47.5858 14.9968 46.8975 15.255C47.4782 15.427 48.0213 15.6367 48.5269 15.884C49.0323 16.1315 49.5325 16.4594 50.0271 16.8679C50.1562 16.9755 50.3014 17.1744 50.4628 17.4648C50.6241 17.7553 50.7745 18.0672 50.9144 18.4004C51.0541 18.7339 51.1671 19.0618 51.2532 19.3844C51.3393 19.707 51.3822 19.9651 51.3822 20.1586C51.3822 20.761 51.1294 21.2933 50.624 21.7557C50.1185 22.2181 49.5431 22.5946 48.8979 22.8849C48.2526 23.1753 47.6236 23.3957 47.0105 23.5462C46.3975 23.6968 45.9728 23.7721 45.7362 23.7721H43.6389C43.4237 23.7721 43.0958 23.6806 42.655 23.4978C42.214 23.3149 41.7623 23.0999 41.2998 22.8524C40.8375 22.6051 40.4233 22.3631 40.0578 22.1265C39.6921 21.8898 39.4662 21.7178 39.3801 21.6102C39.4446 21.4811 39.4984 21.1962 39.5415 20.7552C39.5846 20.3143 39.6168 19.7658 39.6383 19.1098C39.6598 18.4536 39.6759 17.7223 39.6867 16.9157C39.6976 16.1092 39.7029 15.2865 39.7029 14.4476C39.7029 13.6087 39.6976 12.8505 39.6867 12.173C39.6761 11.4955 39.6706 10.8608 39.6706 10.2694C39.6706 9.67789 39.6653 9.10798 39.6544 8.55956C39.6436 8.01114 39.6383 7.4464 39.6383 6.86568C39.6383 6.3494 39.6867 5.9945 39.7835 5.80098C39.8803 5.60746 39.9179 5.5107 39.8964 5.5107C39.5523 5.5107 39.0252 5.63977 38.3154 5.89774C37.6056 6.15588 36.9012 6.47847 36.2022 6.86568C35.5031 7.25288 34.89 7.67773 34.3631 8.14005C33.8362 8.60253 33.5727 9.03804 33.5727 9.44673C33.5727 9.94136 33.6263 10.35 33.7341 10.6728C33.8415 10.9956 33.8954 11.1783 33.8954 11.2212C33.8954 11.5869 33.8202 11.8934 33.6696 12.1407C33.5191 12.3882 33.2824 12.5117 32.9598 12.5117C32.7017 12.5117 32.4973 12.4203 32.3468 12.2375C32.1962 12.0546 32.0833 11.8504 32.008 11.6244C31.9328 11.3986 31.8843 11.1781 31.8628 10.9631C31.8413 10.7479 31.8305 10.6082 31.8305 10.5437C31.8305 9.70486 32.078 8.94128 32.5726 8.25296C33.0672 7.56465 33.7126 6.95694 34.5085 6.43001C35.3044 5.90307 36.213 5.45125 37.2348 5.07487C38.2565 4.69849 39.305 4.38656 40.3804 4.13924C41.4557 3.89177 42.5044 3.70907 43.526 3.59082C44.5477 3.47258 45.4564 3.41329 46.2523 3.41329H46.5104C47.4783 3.43478 48.387 3.62297 49.2367 3.97787C50.0862 4.33276 50.7907 4.86519 51.3499 5.57499C51.3929 5.61796 51.4199 5.65027 51.4307 5.67175C51.4414 5.69323 51.4577 5.71472 51.4792 5.7362C51.7588 6.0588 51.9738 6.3116 52.1243 6.49446C52.2749 6.67732 52.3878 6.84936 52.4631 7.01074C52.5384 7.17211 52.5868 7.33866 52.6083 7.51086C52.6298 7.6829 52.6406 7.89806 52.6406 8.1562V8.15701ZM142.656 23.0951C142.656 23.2671 142.613 23.3855 142.527 23.45C142.441 23.5144 142.344 23.5575 142.236 23.579C142.129 23.6005 142.016 23.6167 141.897 23.6275C141.779 23.6381 141.699 23.6759 141.656 23.7404V28.8704C141.656 29.279 141.65 29.7254 141.64 30.2092C141.629 30.6931 141.58 31.1718 141.494 31.6449C141.408 32.1181 141.274 32.5591 141.091 32.9678C140.908 33.3764 140.645 33.7097 140.301 33.968C140.279 33.9895 140.209 34.0379 140.091 34.1131C139.973 34.1883 139.843 34.2744 139.704 34.3712C139.564 34.468 139.43 34.5596 139.3 34.6455C139.171 34.7314 139.085 34.7852 139.042 34.8069C138.741 35.0004 138.499 35.2262 138.316 35.4844C138.133 35.7425 137.902 35.8716 137.623 35.8716C137.515 35.8716 137.434 35.8662 137.381 35.8554C137.327 35.8446 137.273 35.8284 137.219 35.8069C137.165 35.7855 137.09 35.7585 136.993 35.7262C136.897 35.694 136.762 35.6562 136.59 35.6133C135.622 35.4197 134.95 35.1346 134.574 34.7582C134.197 34.3819 134.009 33.7743 134.009 32.9353C134.009 32.0749 134.138 31.1823 134.396 30.2573C134.654 29.3323 135.009 28.4399 135.461 27.5795C135.912 26.7192 136.45 25.9179 137.074 25.1758C137.698 24.4339 138.375 23.8047 139.106 23.2884V19.1587C138.999 19.5672 138.87 20.0405 138.719 20.5783C138.569 21.1161 138.381 21.6213 138.155 22.0947C137.929 22.5678 137.665 22.9658 137.364 23.2884C137.063 23.611 136.708 23.7724 136.3 23.7724C135.934 23.7724 135.536 23.6433 135.106 23.3852C134.676 23.127 134.289 22.8689 133.944 22.6109C133.686 22.3958 133.482 22.057 133.331 21.5947C133.295 21.4821 133.26 21.3677 133.228 21.2521C133.185 21.3756 133.139 21.5008 133.089 21.627C132.842 22.2615 132.509 22.8263 132.089 23.3209C131.67 23.8155 131.137 24.0628 130.492 24.0628C129.804 24.0628 129.255 23.8208 128.847 23.3369C128.438 22.8529 128.126 22.2722 127.911 21.5947C127.696 20.917 127.556 20.2072 127.491 19.4653C127.427 18.7232 127.395 18.1048 127.395 17.61C127.395 17.0508 127.427 16.4862 127.491 15.9163C127.556 15.3462 127.599 14.7817 127.62 14.2224C127.62 14.0504 127.534 13.9428 127.362 13.8998C127.19 13.8569 127.029 13.8354 126.878 13.8354C126.62 13.8354 126.459 13.8675 126.394 13.9321C126.33 13.9966 126.287 14.0719 126.265 14.158L126.136 15.1904C126.05 15.8787 125.959 16.54 125.862 17.1745C125.765 17.8091 125.658 18.3683 125.539 18.8523C125.436 19.2765 125.315 19.6264 125.178 19.9019C125.126 20.1738 125.026 20.4852 124.878 20.8366C124.706 21.2451 124.485 21.6378 124.217 22.0142C123.948 22.3906 123.636 22.7078 123.281 22.966C122.926 23.2241 122.533 23.353 122.103 23.353C121.458 23.353 120.893 23.1057 120.41 22.6111C119.926 22.1165 119.63 21.4173 119.522 20.5138C119.393 20.8581 119.243 21.2559 119.071 21.7076C118.899 22.1593 118.684 22.5788 118.425 22.9658C118.167 23.3529 117.871 23.681 117.538 23.9497C117.205 24.2187 116.812 24.3531 116.36 24.3531C116.231 24.3531 116.135 24.3423 116.07 24.3208C116.006 24.2993 115.936 24.2723 115.86 24.2402C115.785 24.2079 115.699 24.1811 115.602 24.1594C115.505 24.1379 115.371 24.1273 115.199 24.1273C114.683 24.1273 114.247 23.9606 113.892 23.6272C113.537 23.2937 113.252 22.8689 113.037 22.3528C112.851 21.9066 112.71 21.4243 112.612 20.9059C112.538 21.0414 112.459 21.174 112.376 21.3042C112.064 21.7882 111.671 22.1861 111.198 22.498C110.725 22.8099 110.144 22.966 109.456 22.966C108.918 22.966 108.37 22.7831 107.81 22.4176C107.251 22.0304 106.869 21.5249 106.665 20.9012C106.46 20.2773 106.358 19.6751 106.358 19.0944C106.358 18.9224 106.369 18.6642 106.391 18.3202C106.412 17.9761 106.423 17.5566 106.423 17.0619V13.513C106.423 13.3409 106.418 13.1581 106.407 12.9645C106.396 12.771 106.369 12.5882 106.326 12.4161C106.305 12.33 106.267 12.2333 106.213 12.1257C106.16 12.0181 106.133 11.9428 106.133 11.8998C106.133 11.8139 106.186 11.744 106.294 11.6902C106.402 11.6365 106.52 11.5987 106.649 11.5772C106.778 11.5558 106.901 11.5449 107.02 11.5449C107.138 11.5449 107.197 11.5449 107.197 11.5449C107.262 11.5449 107.413 11.5503 107.649 11.5611C107.886 11.5718 108.133 11.6096 108.391 11.674C108.649 11.7385 108.88 11.8407 109.085 11.9804C109.289 12.1202 109.391 12.3192 109.391 12.5773C109.413 12.6418 109.375 12.7602 109.278 12.9322C109.182 13.1043 109.09 13.4054 109.004 13.8355C108.983 14.0076 108.961 14.1635 108.94 14.3034C108.918 14.4431 108.897 14.5991 108.875 14.7712C108.854 14.9432 108.832 15.153 108.811 15.4004C108.789 15.6477 108.768 15.9649 108.746 16.352V18.2878C108.746 18.6321 108.757 18.9815 108.778 19.3364C108.8 19.6913 108.848 20.0139 108.924 20.3043C108.999 20.5948 109.123 20.8313 109.295 21.0141C109.467 21.197 109.693 21.2884 109.972 21.2884C110.381 21.2884 110.704 21.1702 110.94 20.9335C111.177 20.6969 111.36 20.4925 111.489 20.3205C111.725 19.9979 111.908 19.5945 112.037 19.1107C112.166 18.6268 112.285 18.1266 112.392 17.6104L112.457 17.2878C112.46 17.2734 112.463 17.2593 112.466 17.2454C112.501 16.5623 112.556 15.8987 112.634 15.2551C112.774 14.0937 113.005 13.0665 113.328 12.174C113.65 11.2813 114.07 10.5715 114.586 10.0446C115.102 9.51764 115.726 9.25401 116.457 9.25401C116.887 9.25401 117.215 9.29165 117.441 9.36709C117.667 9.44237 117.877 9.52846 118.07 9.62523C118.264 9.72199 118.474 9.82408 118.699 9.93166C118.925 10.0391 119.242 10.1252 119.651 10.1898C120.103 10.4479 120.42 10.7544 120.603 11.1093C120.785 11.4642 120.904 11.846 120.958 12.2546C121.011 12.6633 121.027 13.0881 121.006 13.5291C120.984 13.9699 121.006 14.4056 121.071 14.8356C121.071 14.8571 121.119 14.8894 121.216 14.9324C121.313 14.9754 121.425 15.0238 121.555 15.0776C121.684 15.1314 121.797 15.2067 121.893 15.3034C121.99 15.4002 122.039 15.5238 122.039 15.6745V15.8036C121.823 16.3628 121.694 16.8576 121.651 17.2878C121.608 17.7179 121.587 18.2342 121.587 18.8364C121.587 19.1377 121.603 19.4656 121.635 19.8205C121.667 20.1754 121.721 20.5088 121.797 20.8206C121.872 21.1325 121.985 21.3907 122.135 21.595C122.286 21.7994 122.48 21.9015 122.716 21.9015C122.974 21.9015 123.205 21.7724 123.41 21.5142C123.614 21.2561 123.786 20.9603 123.926 20.6271C124.019 20.4059 124.102 20.1822 124.176 19.9565C124.186 19.8809 124.205 19.7874 124.233 19.6753C124.405 18.9225 124.512 18.2987 124.555 17.804C124.598 17.3094 124.63 16.8684 124.652 16.4812V16.2554C124.652 16.148 124.657 16.0187 124.668 15.8683C124.679 15.7178 124.684 15.5349 124.684 15.3199V14.4811C124.684 14.2444 124.684 13.9971 124.684 13.7391C124.684 13.481 124.663 13.2013 124.62 12.9002L124.523 10.9967C124.523 10.8676 124.577 10.7492 124.684 10.6418C124.792 10.5342 124.932 10.4374 125.104 10.3513C125.276 10.2654 125.459 10.2008 125.652 10.1578C125.846 10.1148 126.018 10.0934 126.168 10.0934C126.534 10.0934 126.717 10.33 126.717 10.8032V10.9645L126.685 11.6743V11.8679C126.685 12.0184 126.717 12.1098 126.781 12.142C126.846 12.1743 126.975 12.2119 127.168 12.2549H127.265C127.437 12.2765 127.717 12.298 128.104 12.3195C128.491 12.341 128.879 12.384 129.266 12.4486C129.653 12.5132 129.992 12.6153 130.282 12.755C130.572 12.8948 130.717 13.0938 130.717 13.3519C130.717 13.4378 130.696 13.5616 130.653 13.723C130.61 13.8843 130.556 14.0457 130.492 14.2069C130.427 14.3683 130.373 14.5134 130.33 14.6426C130.287 14.7717 130.266 14.8576 130.266 14.9007C129.879 16.3848 129.685 17.9334 129.685 19.5466C129.685 19.6756 129.696 19.9123 129.717 20.2563C129.739 20.6006 129.782 20.9555 129.846 21.321C129.911 21.6868 130.008 22.0094 130.137 22.289C130.266 22.5686 130.427 22.7085 130.621 22.7085C130.943 22.7085 131.234 22.5095 131.492 22.1116C131.75 21.7137 131.976 21.2513 132.169 20.7242C132.363 20.1972 132.519 19.6648 132.637 19.1272C132.719 18.7545 132.783 18.4491 132.829 18.2108C132.82 17.9538 132.815 17.7538 132.815 17.6108C132.815 16.772 132.826 15.8955 132.847 14.9813C132.868 14.0672 132.922 13.223 133.008 12.4486C133.094 11.6743 133.224 11.0343 133.396 10.5289C133.568 10.0234 133.793 9.77077 134.073 9.77077C134.159 9.77077 134.331 9.79226 134.589 9.83523C134.848 9.87819 135.116 9.94814 135.396 10.0449C135.676 10.1417 135.923 10.2707 136.138 10.4321C136.353 10.5935 136.461 10.7923 136.461 11.0288C136.461 11.0934 136.434 11.1419 136.38 11.1741C136.326 11.2064 136.278 11.244 136.235 11.287C136.106 11.3731 135.987 11.5398 135.88 11.7871C135.772 12.0346 135.681 12.3895 135.606 12.8518C135.53 13.3143 135.471 13.9165 135.428 14.6586C135.385 15.4007 135.364 16.3093 135.364 17.3849C135.364 18.998 135.423 20.1488 135.541 20.8371C135.659 21.5254 135.901 21.8695 136.267 21.8695C136.654 21.8695 137.004 21.579 137.316 20.9983C137.628 20.4176 137.913 19.654 138.171 18.7075C138.429 17.7611 138.665 16.6856 138.88 15.4811C139.096 14.2767 139.289 13.0613 139.461 11.8354C139.676 11.8354 139.918 11.8462 140.187 11.8677C140.456 11.8892 140.714 11.9321 140.961 11.9968C141.209 12.0614 141.419 12.142 141.59 12.2387C141.762 12.3355 141.849 12.4699 141.849 12.6421C141.849 12.7497 141.784 12.825 141.655 12.8679V22.4179C141.892 22.4394 142.117 22.4878 142.333 22.5631C142.548 22.6384 142.655 22.8158 142.655 23.0954L142.656 23.0951ZM139.107 24.676C138.59 25.0847 138.128 25.6116 137.719 26.257C137.311 26.9022 136.961 27.5852 136.671 28.3056C136.381 29.0261 136.16 29.7414 136.01 30.4512C135.859 31.161 135.784 31.774 135.784 32.2901C135.784 32.3977 135.789 32.5751 135.8 32.8225C135.811 33.0698 135.859 33.3118 135.945 33.5485C136.031 33.7851 136.155 33.9948 136.316 34.1777C136.478 34.3605 136.72 34.4518 137.042 34.4518C137.515 34.4518 137.886 34.1992 138.155 33.6935C138.424 33.1881 138.628 32.5965 138.768 31.9191C138.908 31.2416 139 30.5639 139.042 29.8864C139.085 29.2089 139.107 28.7088 139.107 28.3861V28.257V24.6757L139.107 24.676ZM119.232 14.5453C119.232 14.3087 119.211 14.0291 119.168 13.7065C119.125 13.3839 119.05 13.0826 118.942 12.8032C118.835 12.5235 118.673 12.2869 118.458 12.0934C118.243 11.8998 117.953 11.8031 117.587 11.8031C116.985 11.8031 116.495 12.0772 116.119 12.6258C115.743 13.1742 115.447 13.8196 115.232 14.5617C115.017 15.3038 114.877 16.0672 114.812 16.8524C114.748 17.6375 114.716 18.2559 114.716 18.7077C114.716 19.0518 114.732 19.4659 114.764 19.9498C114.796 20.4337 114.855 20.8907 114.942 21.3209C115.027 21.7511 115.151 22.1168 115.313 22.4179C115.474 22.719 115.684 22.8695 115.942 22.8695C116.565 22.8695 117.044 22.6276 117.378 22.1436C117.711 21.6596 117.964 21.0574 118.136 20.337C118.308 19.6163 118.432 18.8421 118.507 18.0139C118.582 17.1858 118.652 16.4276 118.717 15.7393C118.759 15.3737 118.856 15.1424 119.007 15.0456C119.158 14.9489 119.233 14.8789 119.233 14.8358V14.5455L119.232 14.5453ZM110.166 8.35069C110.166 8.50125 110.091 8.62482 109.94 8.72175C109.79 8.81851 109.623 8.88845 109.44 8.93142C109.257 8.97439 109.08 9.0067 108.908 9.02818C108.736 9.04967 108.628 9.06049 108.585 9.06049C108.134 9.06049 107.687 8.93142 107.247 8.67328C106.806 8.41515 106.402 8.00646 106.037 7.44721C105.994 7.3826 105.929 7.29666 105.843 7.18907C105.757 7.08149 105.714 7.00621 105.714 6.96325C105.714 6.85582 105.795 6.7589 105.956 6.6728C106.117 6.58686 106.3 6.50076 106.504 6.41466C106.709 6.32872 106.902 6.26411 107.085 6.22114C107.268 6.17801 107.391 6.15653 107.456 6.15653C107.886 6.15653 108.311 6.26411 108.73 6.47928C109.15 6.69445 109.489 7.09231 109.747 7.67304C109.79 7.7375 109.87 7.85057 109.989 8.01179C110.107 8.17316 110.166 8.28592 110.166 8.35053L110.166 8.35069ZM104.359 15.8034C104.165 16.7498 103.821 17.7178 103.326 18.7072C102.832 19.6966 102.24 20.5893 101.552 21.385C100.864 22.1809 100.1 22.8316 99.2612 23.337C98.4223 23.8425 97.5512 24.0953 96.6479 24.0953H96.5834C96.0242 24.0953 95.4757 23.9609 94.938 23.6919C94.4002 23.423 93.7657 23.138 93.0344 22.8369C92.9485 22.7939 92.7818 22.7455 92.5343 22.6917C92.287 22.6381 92.0288 22.5573 91.76 22.4497C91.4911 22.3423 91.2438 22.1971 91.0179 22.0142C90.7921 21.8313 90.6469 21.5894 90.5824 21.2883V9.67336C90.5824 9.04951 90.5501 8.46894 90.4857 7.93102C90.4212 7.39326 90.2598 7.00605 90.0017 6.76956H90.2922C90.7653 6.76956 91.2546 6.69428 91.7602 6.54373C92.2657 6.39318 92.6797 6.3179 93.0024 6.3179C93.2174 6.3179 93.3841 6.36636 93.5024 6.46312C93.6206 6.55989 93.6799 6.73742 93.6799 6.99555V21.0301C94.0886 21.1592 94.3951 21.2829 94.5994 21.4012C94.8037 21.5194 94.9758 21.6215 95.1157 21.7076C95.2554 21.7935 95.39 21.8635 95.519 21.9173C95.6481 21.9711 95.8418 21.9981 96.0998 21.9981C97.1107 21.9981 97.9763 21.7184 98.697 21.1592C99.4174 20.5999 100.014 19.847 100.488 18.9007C100.961 17.9543 101.31 16.8628 101.536 15.6259C101.762 14.3891 101.875 13.1039 101.875 11.7704C101.875 10.7166 101.751 9.73782 101.504 8.8345C101.257 7.93118 100.837 7.14078 100.246 6.46312C99.6541 5.78563 98.8583 5.24788 97.8581 4.85001C96.858 4.45198 95.5943 4.2423 94.0671 4.22082H93.8413C90.8084 4.22082 88.5555 4.64017 87.0821 5.47904C85.6087 6.3179 84.8719 7.44721 84.8719 8.86681C84.8719 9.14643 84.9204 9.38308 85.0171 9.5766C85.1139 9.77013 85.2162 9.96365 85.3236 10.1573C85.4312 10.3509 85.5387 10.5552 85.6463 10.7704C85.7538 10.9855 85.8184 11.2543 85.8399 11.5769C85.8184 11.6199 85.7378 11.749 85.598 11.9641C85.4583 12.1793 85.3452 12.2975 85.2593 12.319C85.2163 12.3405 85.1196 12.3512 84.9688 12.3512C84.7322 12.3512 84.4581 12.2812 84.1461 12.1415C83.8342 12.0018 83.5386 11.8081 83.2588 11.5608C82.9792 11.3133 82.748 11.0177 82.5652 10.6734C82.3823 10.3294 82.2909 9.95299 82.2909 9.5443C82.2909 8.51191 82.6673 7.57095 83.4202 6.72126C84.1729 5.87173 85.157 5.14029 86.3723 4.52742C87.5875 3.91438 88.9425 3.44124 90.4375 3.10782C91.9324 2.77441 93.4219 2.6077 94.906 2.6077C95.8093 2.6077 96.7128 2.68847 97.6161 2.84969C98.5194 3.01106 99.3745 3.27986 100.181 3.65624C100.988 4.03263 101.714 4.51659 102.359 5.10815C103.004 5.6997 103.52 6.42549 103.908 7.286C104.252 7.97415 104.488 8.71092 104.617 9.496C104.747 10.2811 104.811 11.0823 104.811 11.8995C104.811 13.19 104.66 14.4914 104.359 15.8034H104.359ZM85.3234 23.0951C85.3234 23.2671 85.2804 23.3855 85.1944 23.45C85.1082 23.5144 85.0115 23.5575 84.9039 23.579C84.7965 23.6005 84.6834 23.6167 84.5652 23.6275C84.4469 23.6381 84.3663 23.6759 84.3233 23.7404V28.8704C84.3233 29.279 84.318 29.7254 84.3072 30.2092C84.2965 30.6931 84.2481 31.1718 84.162 31.6449C84.076 32.1181 83.9416 32.5591 83.7586 32.9678C83.5757 33.3764 83.3123 33.7097 82.9682 33.968C82.9467 33.9895 82.8768 34.0379 82.7585 34.1131C82.6403 34.1883 82.511 34.2744 82.3713 34.3712C82.2316 34.468 82.0972 34.5596 81.968 34.6455C81.8389 34.7314 81.7528 34.7852 81.7098 34.8069C81.4087 35.0004 81.1667 35.2262 80.9839 35.4844C80.801 35.7425 80.5698 35.8716 80.2902 35.8716C80.1828 35.8716 80.102 35.8662 80.0482 35.8554C79.9946 35.8446 79.9408 35.8284 79.8869 35.8069C79.8331 35.7855 79.7578 35.7585 79.661 35.7262C79.5643 35.694 79.4297 35.6562 79.2577 35.6133C78.2897 35.4197 77.6176 35.1346 77.2412 34.7582C76.8648 34.3819 76.6766 33.7743 76.6766 32.9353C76.6766 32.0749 76.8057 31.1823 77.0637 30.2573C77.3218 29.3323 77.6767 28.4399 78.1284 27.5795C78.58 26.7192 79.1178 25.9179 79.7415 25.1758C80.3653 24.4339 81.0428 23.8047 81.7741 23.2884V19.1587C81.6667 19.5672 81.5375 20.0405 81.3871 20.5783C81.2365 21.1161 81.0483 21.6213 80.8225 22.0947C80.5967 22.5678 80.333 22.9658 80.0319 23.2884C79.7308 23.611 79.3759 23.7724 78.9672 23.7724C78.6015 23.7724 78.2036 23.6433 77.7735 23.3852C77.3433 23.127 76.9562 22.8689 76.612 22.6109C76.3539 22.3958 76.1495 22.057 75.999 21.5947C75.8484 21.1322 75.7355 20.6429 75.6602 20.1266C75.585 19.6104 75.5365 19.1156 75.515 18.6424C75.4935 18.1693 75.4827 17.8252 75.4827 17.61C75.4827 16.7712 75.4935 15.8947 75.515 14.9805C75.5365 14.0664 75.5903 13.2222 75.6764 12.4478C75.7623 11.6735 75.8915 11.0335 76.0636 10.5281C76.2356 10.0226 76.4615 9.76996 76.7411 9.76996C76.827 9.76996 76.9992 9.79145 77.2573 9.83442C77.5155 9.87739 77.7843 9.94733 78.0639 10.0441C78.3435 10.1409 78.5908 10.2699 78.806 10.4313C79.0212 10.5927 79.1286 10.7915 79.1286 11.028C79.1286 11.0926 79.1016 11.1411 79.048 11.1732C78.9942 11.2056 78.9457 11.2432 78.9028 11.2862C78.7737 11.3723 78.6553 11.539 78.5479 11.7863C78.4403 12.0338 78.3489 12.3887 78.2736 12.851C78.1983 13.3135 78.1392 13.9157 78.0962 14.6578C78.0532 15.3999 78.0318 16.3085 78.0318 17.384C78.0318 18.9972 78.0909 20.148 78.2091 20.8363C78.3274 21.5246 78.5694 21.8687 78.9351 21.8687C79.3223 21.8687 79.6719 21.5782 79.9836 20.9975C80.2956 20.4168 80.5805 19.6532 80.8386 18.7067C81.0968 17.7603 81.3333 16.6847 81.5484 15.4803C81.7636 14.2759 81.9571 13.0605 82.1292 11.8346C82.3443 11.8346 82.5863 11.8454 82.8551 11.8669C83.1239 11.8884 83.3821 11.9313 83.6294 11.996C83.8767 12.0606 84.0865 12.1412 84.2584 12.2379C84.4304 12.3347 84.5165 12.4691 84.5165 12.6413C84.5165 12.7489 84.4521 12.8242 84.323 12.8671V22.4171C84.5597 22.4386 84.7853 22.487 85.0005 22.5623C85.2157 22.6376 85.3231 22.8149 85.3231 23.0946L85.3234 23.0951ZM81.7744 24.676C81.2582 25.0847 80.7958 25.6116 80.3871 26.257C79.9785 26.9022 79.6289 27.5852 79.3386 28.3056C79.0483 29.0261 78.8278 29.7414 78.6773 30.4512C78.5267 31.161 78.4514 31.774 78.4514 32.2901C78.4514 32.3977 78.4568 32.5751 78.4676 32.8225C78.4784 33.0698 78.5267 33.3118 78.6128 33.5485C78.6988 33.7851 78.8225 33.9948 78.9839 34.1777C79.1452 34.3605 79.3872 34.4518 79.7098 34.4518C80.183 34.4518 80.554 34.1992 80.823 33.6935C81.0918 33.1881 81.2961 32.5965 81.436 31.9191C81.5757 31.2416 81.6672 30.5639 81.7101 29.8864C81.7531 29.2089 81.7746 28.7088 81.7746 28.3861V28.257V24.6757L81.7744 24.676ZM74.2248 18.1911C74.2248 18.7718 74.1763 19.3902 74.0796 20.0462C73.9828 20.7022 73.7891 21.3044 73.4988 21.853C73.2086 22.4014 72.7999 22.8586 72.2728 23.2241C71.7458 23.5897 71.0522 23.7725 70.1919 23.7725C69.4176 23.7725 68.853 23.7134 68.4981 23.595C68.1432 23.4768 67.8475 23.3424 67.6108 23.1917C67.6108 23.1917 67.5572 23.2186 67.4494 23.2724C67.342 23.3261 67.2236 23.3853 67.0945 23.4498C66.9655 23.5142 66.8419 23.5735 66.7235 23.6273C66.6052 23.681 66.5138 23.7079 66.4492 23.7079C66.2986 23.7079 66.1642 23.6543 66.0458 23.5466C65.9276 23.4391 65.8361 23.2186 65.7717 22.8852C65.7072 22.5518 65.6588 22.0895 65.6265 21.4979C65.6127 21.2453 65.6019 20.9584 65.594 20.6373C65.569 20.7022 65.5421 20.7686 65.5136 20.8366C65.3415 21.2451 65.121 21.6378 64.8522 22.0142C64.5833 22.3906 64.2715 22.7078 63.9166 22.966C63.5617 23.2241 63.1692 23.353 62.739 23.353C62.0936 23.353 61.5291 23.1057 61.0453 22.6111C60.5613 22.1165 60.2655 21.4173 60.1579 20.5138C60.0289 20.8581 59.8783 21.2559 59.7063 21.7076C59.5342 22.1593 59.3192 22.5788 59.0611 22.9658C58.8029 23.3529 58.5072 23.681 58.1738 23.9497C57.8403 24.2187 57.4478 24.3531 56.9962 24.3531C56.8671 24.3531 56.7703 24.3423 56.7057 24.3208C56.6413 24.2993 56.5713 24.2723 56.496 24.2402C56.4208 24.2079 56.3347 24.1811 56.2379 24.1594C56.1411 24.1379 56.0067 24.1273 55.8345 24.1273C55.3183 24.1273 54.8828 23.9606 54.5279 23.6272C54.173 23.2937 53.888 22.8689 53.6728 22.3528C53.4577 21.8365 53.3018 21.2719 53.205 20.6589C53.1083 20.0459 53.0598 19.4705 53.0598 18.9329C53.0598 17.6423 53.1297 16.4164 53.2695 15.2548C53.4092 14.0934 53.6405 13.0661 53.9631 12.1736C54.2857 11.281 54.7052 10.5712 55.2213 10.0443C55.7376 9.51732 56.3613 9.25369 57.0926 9.25369C57.5228 9.25369 57.8508 9.29133 58.0765 9.36677C58.3023 9.44204 58.5122 9.52814 58.7057 9.6249C58.8992 9.72166 59.1091 9.82376 59.3347 9.93134C59.5606 10.0388 59.8778 10.1249 60.2865 10.1895C60.7382 10.4476 61.0554 10.7541 61.2381 11.109C61.421 11.4638 61.5394 11.8457 61.593 12.2543C61.6468 12.6629 61.663 13.0878 61.6415 13.5288C61.62 13.9696 61.6415 14.4053 61.7061 14.8353C61.7061 14.8568 61.7546 14.8891 61.8513 14.9321C61.9481 14.975 62.061 15.0235 62.1901 15.0773C62.3191 15.1311 62.4321 15.2064 62.5288 15.3031C62.6256 15.3999 62.674 15.5235 62.674 15.6742V15.8032C62.4589 16.3625 62.3298 16.8573 62.2868 17.2874C62.2439 17.7176 62.2224 18.2339 62.2224 18.8361C62.2224 19.1374 62.2385 19.4653 62.2708 19.8202C62.303 20.1751 62.3568 20.5085 62.4322 20.8203C62.5075 21.1322 62.6204 21.3903 62.771 21.5947C62.9215 21.799 63.115 21.9011 63.3517 21.9011C63.6098 21.9011 63.841 21.7721 64.0453 21.5139C64.2497 21.2558 64.4217 20.96 64.5616 20.6268C64.7013 20.2933 64.8197 19.9546 64.9165 19.6104C65.0133 19.2663 65.0724 19.0081 65.0939 18.8361C65.137 18.578 65.2444 18.4491 65.4166 18.4491C65.4722 18.4491 65.5263 18.4649 65.5791 18.4966C65.5841 17.0217 65.6053 15.1131 65.6425 12.7707C65.6856 10.0606 65.7286 6.56538 65.7715 2.28495C65.7715 2.06978 65.75 1.94087 65.7071 1.89774C65.6641 1.85477 65.6425 1.81181 65.6425 1.76868C65.6425 1.63961 65.7662 1.55351 66.0135 1.51054C66.2608 1.46757 66.4169 1.44592 66.4813 1.44592C66.5458 1.44592 66.718 1.46757 66.9976 1.51054C67.2772 1.55351 67.5622 1.61796 67.8526 1.70406C68.1431 1.79 68.4065 1.90291 68.6432 2.0428C68.8798 2.18254 68.9981 2.34924 68.9981 2.54293C68.9981 2.54293 68.9764 2.60738 68.9335 2.73645C68.8905 2.86552 68.8367 3.0214 68.7721 3.20426C68.7076 3.38712 68.6484 3.55916 68.5947 3.72054C68.5409 3.88191 68.514 3.99483 68.514 4.05928C68.4065 4.8765 68.3258 5.58113 68.272 6.17252C68.2183 6.76407 68.1752 7.38777 68.1429 8.04377C68.1106 8.69994 68.0783 9.45803 68.0461 10.3184C68.0138 11.1787 67.9654 12.2972 67.9009 13.6738C68.0083 13.4588 68.1106 13.1845 68.2074 12.8511C68.3041 12.5177 68.4279 12.1898 68.5784 11.8672C68.729 11.5445 68.9172 11.2648 69.143 11.0283C69.3688 10.7917 69.6754 10.6734 70.0626 10.6734C70.2347 10.6734 70.4766 10.7381 70.7886 10.867C71.1005 10.996 71.3423 11.0821 71.5145 11.1251C72.1169 11.2542 72.5954 11.5929 72.9503 12.1413C73.3052 12.6898 73.5795 13.3243 73.7731 14.0449C73.9667 14.7654 74.0904 15.5021 74.1442 16.2549C74.198 17.0078 74.225 17.653 74.225 18.1908L74.2248 18.1911ZM71.8696 17.4167C71.8696 17.3522 71.8643 17.18 71.8534 16.9004C71.8426 16.6208 71.8211 16.2982 71.789 15.9325C71.7567 15.5667 71.7082 15.1742 71.6438 14.7549C71.5791 14.3355 71.4877 13.9536 71.3695 13.6094C71.2512 13.2653 71.106 12.9804 70.934 12.7544C70.7619 12.5285 70.5467 12.4156 70.2886 12.4156C69.9445 12.4156 69.6218 12.7167 69.3207 13.3189C69.0196 13.9213 68.7561 14.6471 68.5301 15.4968C68.3043 16.3463 68.1268 17.2228 67.9978 18.1263C67.8688 19.0296 67.8043 19.7717 67.8043 20.3525C67.8043 20.5891 67.8097 20.8418 67.8205 21.1107C67.8313 21.3797 67.8581 21.6323 67.9012 21.869C68.1594 21.9764 68.3529 22.068 68.482 22.1431C68.611 22.2184 68.7186 22.283 68.8047 22.3366C68.8907 22.3904 68.9821 22.4281 69.0788 22.4495C69.1756 22.4712 69.2994 22.4819 69.4499 22.4819C70.0092 22.4819 70.4501 22.2614 70.7727 21.8205C71.0953 21.3797 71.3373 20.8741 71.4987 20.3042C71.6601 19.7341 71.7622 19.1695 71.8051 18.6104C71.8481 18.0512 71.8696 17.6532 71.8696 17.4167ZM59.8675 14.5453C59.8675 14.3087 59.846 14.0291 59.803 13.7065C59.7601 13.3839 59.6848 13.0826 59.5772 12.8032C59.4696 12.5235 59.3082 12.2869 59.0932 12.0934C58.8781 11.8998 58.5878 11.8031 58.2221 11.8031C57.6197 11.8031 57.1304 12.0772 56.754 12.6258C56.3776 13.1742 56.0818 13.8196 55.8668 14.5617C55.6517 15.3038 55.5119 16.0672 55.4473 16.8524C55.3829 17.6375 55.3506 18.2559 55.3506 18.7077C55.3506 19.0518 55.3667 19.4659 55.399 19.9498C55.4313 20.4337 55.4905 20.8907 55.5766 21.3209C55.6625 21.7511 55.7862 22.1168 55.9476 22.4179C56.109 22.719 56.3187 22.8695 56.5768 22.8695C57.2005 22.8695 57.6791 22.6276 58.0125 22.1436C58.346 21.6596 58.5986 21.0574 58.7708 20.337C58.9428 19.6163 59.0666 18.8421 59.1419 18.0139C59.2171 17.1858 59.2871 16.4276 59.3515 15.7393C59.3945 15.3737 59.4913 15.1424 59.642 15.0456C59.7925 14.9489 59.8678 14.8789 59.8678 14.8358V14.5455L59.8675 14.5453ZM50.1562 7.51183C50.1562 6.56538 49.6937 5.92553 48.7687 5.59211C47.8437 5.2587 46.4888 5.09199 44.7035 5.09199H43.6388C43.3591 5.09199 43.0742 5.09199 42.7837 5.09199C42.4935 5.09199 42.1977 5.11348 41.8966 5.15661C41.9395 5.22106 41.9988 5.28568 42.0739 5.35013C42.1492 5.41474 42.2192 5.51684 42.2836 5.65657C42.3482 5.79646 42.4019 6.0008 42.445 6.2696C42.488 6.5384 42.5094 6.90945 42.5094 7.3826V13.7386C42.5094 13.9107 42.5579 14.0236 42.6547 14.0774C42.7514 14.1312 43.101 14.1581 43.7032 14.1581C44.241 14.1581 44.881 13.9699 45.6229 13.5936C46.365 13.2172 47.0695 12.7171 47.7362 12.0932C48.403 11.4695 48.9729 10.7597 49.4462 9.96381C49.9193 9.16807 50.156 8.35069 50.156 7.51183H50.1562ZM48.7043 19.1267C48.7043 18.8041 48.5429 18.4599 48.2203 18.0943C47.8977 17.7286 47.5213 17.3845 47.0911 17.0618C46.661 16.7392 46.2416 16.4757 45.8329 16.2714C45.4244 16.067 45.1231 15.9649 44.9296 15.9649C44.435 15.9649 43.9508 15.9971 43.4777 16.0617C43.0046 16.1262 42.7464 16.1799 42.7035 16.2231C42.682 16.2446 42.6605 16.3628 42.6388 16.578C42.6174 16.7931 42.5959 17.0673 42.5744 17.4007C42.5529 17.7341 42.5367 18.0943 42.5259 18.4815C42.5153 18.8687 42.5098 19.2451 42.5098 19.6107C42.5098 19.8259 42.5313 20.0678 42.5742 20.3366C42.6172 20.6054 42.7033 20.8636 42.8324 21.1109C42.9614 21.3584 43.1388 21.568 43.3648 21.7399C43.5906 21.912 43.8864 21.9981 44.252 21.9981L44.8973 21.9334C45.134 21.9334 45.4619 21.8743 45.8812 21.7561C46.3007 21.6378 46.7201 21.4603 47.1394 21.2236C47.5588 20.987 47.9245 20.6914 48.2364 20.3365C48.5484 19.9816 48.7043 19.5782 48.7043 19.1266V19.1267Z" fill="black"/>
<defs>
<linearGradient id="paint0_linear" x1="-1.46392" y1="22.1982" x2="36.6585" y2="-0.133267" gradientUnits="userSpaceOnUse">
<stop stop-color="#FF5BAA"/>
<stop offset="1" stop-color="#F693C0"/>
</linearGradient>
</defs>
</svg>
