<svg width="95" height="20" viewBox="0 0 95 20" fill="none" xmlns="http://www.w3.org/2000/svg">
<path d="M13.9571 3.38195H8.15609V19H6.07369V3.38195H0.272696V1.44829H13.9571V3.38195ZM22.5567 16.8928C21.8626 17.7853 21.1023 18.4133 20.276 18.7769C19.4496 19.124 18.491 19.2975 17.4003 19.2975C16.4913 19.2975 15.6732 19.1405 14.946 18.8265C14.2188 18.4959 13.599 18.058 13.0867 17.5126C12.5909 16.9672 12.2025 16.3226 11.9215 15.5789C11.6571 14.8352 11.5249 14.0419 11.5249 13.199C11.5249 12.3066 11.6736 11.4885 11.9711 10.7447C12.2686 9.9845 12.6818 9.33995 13.2107 8.81108C13.7395 8.26569 14.3675 7.84425 15.0947 7.54676C15.8219 7.24928 16.6152 7.10053 17.4746 7.10053C18.2845 7.10053 19.0282 7.24101 19.7058 7.52197C20.3834 7.78641 20.9618 8.18305 21.4411 8.71192C21.9369 9.22426 22.3171 9.86055 22.5815 10.6208C22.8459 11.3645 22.9781 12.2157 22.9781 13.1742V13.794H13.6073C13.6404 14.2898 13.756 14.7691 13.9544 15.2318C14.1692 15.6781 14.4419 16.0747 14.7725 16.4218C15.103 16.7523 15.4914 17.0168 15.9376 17.2151C16.3838 17.4134 16.8714 17.5126 17.4003 17.5126C18.2431 17.5126 18.9538 17.3638 19.5322 17.0663C20.1107 16.7689 20.6313 16.3309 21.0941 15.7524L22.5567 16.8928ZM20.8957 12.1578C20.8627 11.1662 20.5404 10.3729 19.9289 9.77791C19.3174 9.18294 18.4745 8.88545 17.4003 8.88545C16.326 8.88545 15.4583 9.18294 14.7972 9.77791C14.1362 10.3729 13.7395 11.1662 13.6073 12.1578H20.8957ZM25.0274 0.25834H26.9611V19H25.0274V0.25834ZM40.0563 16.8928C39.3622 17.7853 38.6019 18.4133 37.7756 18.7769C36.9492 19.124 35.9907 19.2975 34.8999 19.2975C33.9909 19.2975 33.1728 19.1405 32.4456 18.8265C31.7184 18.4959 31.0987 18.058 30.5863 17.5126C30.0905 16.9672 29.7021 16.3226 29.4212 15.5789C29.1567 14.8352 29.0245 14.0419 29.0245 13.199C29.0245 12.3066 29.1733 11.4885 29.4707 10.7447C29.7682 9.9845 30.1814 9.33995 30.7103 8.81108C31.2391 8.26569 31.8672 7.84425 32.5944 7.54676C33.3215 7.24928 34.1148 7.10053 34.9742 7.10053C35.7841 7.10053 36.5278 7.24101 37.2054 7.52197C37.883 7.78641 38.4614 8.18305 38.9407 8.71192C39.4365 9.22426 39.8167 9.86055 40.0811 10.6208C40.3455 11.3645 40.4777 12.2157 40.4777 13.1742V13.794H31.1069C31.14 14.2898 31.2557 14.7691 31.454 15.2318C31.6688 15.6781 31.9415 16.0747 32.2721 16.4218C32.6026 16.7523 32.991 17.0168 33.4372 17.2151C33.8835 17.4134 34.371 17.5126 34.8999 17.5126C35.7428 17.5126 36.4534 17.3638 37.0319 17.0663C37.6103 16.7689 38.1309 16.3309 38.5937 15.7524L40.0563 16.8928ZM38.3953 12.1578C38.3623 11.1662 38.04 10.3729 37.4285 9.77791C36.817 9.18294 35.9741 8.88545 34.8999 8.88545C33.8256 8.88545 32.9579 9.18294 32.2969 9.77791C31.6358 10.3729 31.2391 11.1662 31.1069 12.1578H38.3953ZM54.4761 3.38195H48.6751V19H46.5927V3.38195H40.7917V1.44829H54.4761V3.38195ZM53.1974 10.1498C53.1974 9.62091 53.1809 9.1251 53.1479 8.66234C53.1148 8.19958 53.0983 7.77814 53.0983 7.39802H54.9328C54.9328 7.71203 54.941 8.02605 54.9576 8.34006C54.9741 8.65408 54.9824 8.97635 54.9824 9.30689H55.0319C55.1641 9.02593 55.3459 8.75324 55.5773 8.4888C55.8252 8.22437 56.1145 7.99299 56.445 7.79467C56.7755 7.57982 57.1474 7.41455 57.5606 7.29886C57.9737 7.16664 58.42 7.10053 58.8993 7.10053C59.0315 7.10053 59.1637 7.1088 59.2959 7.12532C59.4281 7.14185 59.5603 7.17491 59.6926 7.22449L59.5686 9.18294C59.2381 9.08378 58.891 9.0342 58.5274 9.0342C57.3375 9.0342 56.4698 9.42258 55.9244 10.1994C55.3955 10.9596 55.1311 12.0091 55.1311 13.3478V19H53.1974V10.1498ZM70.9118 16.2482C70.9118 16.7771 70.9284 17.2729 70.9614 17.7357C70.9945 18.1984 71.011 18.6199 71.011 19H69.1765C69.1765 18.686 69.1682 18.372 69.1517 18.058C69.1352 17.7439 69.1269 17.4217 69.1269 17.0911H69.0773C68.9451 17.3721 68.7551 17.6448 68.5071 17.9092C68.2758 18.1736 67.9948 18.4133 67.6643 18.6281C67.3337 18.8265 66.9619 18.9835 66.5487 19.0992C66.1355 19.2314 65.6893 19.2975 65.21 19.2975C64.4498 19.2975 63.7887 19.1818 63.2268 18.9504C62.6814 18.719 62.2269 18.3968 61.8633 17.9836C61.4997 17.5704 61.227 17.0746 61.0452 16.4962C60.8799 15.9012 60.7973 15.2566 60.7973 14.5625V7.39802H62.7309V14.3642C62.7309 15.3393 62.9458 16.1078 63.3755 16.6697C63.8052 17.2316 64.4746 17.5126 65.3835 17.5126C66.0116 17.5126 66.5487 17.4051 66.9949 17.1903C67.4577 16.9754 67.8295 16.6697 68.1105 16.273C68.408 15.8764 68.6228 15.4054 68.7551 14.86C68.9038 14.3146 68.9782 13.7113 68.9782 13.0503V7.39802H70.9118V16.2482ZM81.7122 10.2985C81.299 9.8027 80.8528 9.44737 80.3735 9.23252C79.8942 9.00114 79.3653 8.88545 78.7869 8.88545C78.1423 8.88545 77.5722 9.00114 77.0764 9.23252C76.5805 9.44737 76.1674 9.75312 75.8368 10.1498C75.5228 10.5464 75.2832 11.0092 75.1179 11.538C74.9526 12.0504 74.87 12.604 74.87 13.199C74.87 13.794 74.9609 14.3559 75.1427 14.8848C75.341 15.3971 75.6054 15.8516 75.936 16.2482C76.2831 16.6449 76.6962 16.9589 77.1755 17.1903C77.6548 17.4051 78.1919 17.5126 78.7869 17.5126C80.0595 17.5126 81.0428 17.0333 81.737 16.0747L83.1748 17.4382C82.6129 18.0827 81.9518 18.5538 81.1916 18.8513C80.4313 19.1487 79.6298 19.2975 78.7869 19.2975C77.8944 19.2975 77.0764 19.1487 76.3326 18.8513C75.5889 18.5538 74.9526 18.1323 74.4238 17.5869C73.9114 17.0415 73.5065 16.397 73.209 15.6533C72.9281 14.9096 72.7876 14.0915 72.7876 13.199C72.7876 12.3231 72.9281 11.5133 73.209 10.7695C73.5065 10.0258 73.9197 9.38126 74.4486 8.83587C74.9774 8.29048 75.6054 7.86904 76.3326 7.57155C77.0764 7.25754 77.8944 7.10053 78.7869 7.10053C79.6463 7.10053 80.4561 7.24928 81.2164 7.54676C81.9931 7.84425 82.6708 8.30701 83.2492 8.93503L81.7122 10.2985ZM84.3009 0.25834H86.2345V12.5049L91.5149 7.39802H94.2667L88.664 12.6784L94.8368 19H91.9859L86.2345 12.9015V19H84.3009V0.25834Z" fill="black"/>
</svg>
