<svg xmlns="http://www.w3.org/2000/svg" xmlns:xlink="http://www.w3.org/1999/xlink" width="1907.445" height="789.974" viewBox="0 0 1907.445 789.974">
  <defs>
    <linearGradient id="linear-gradient" x1="0.094" y1="0.094" x2="0.896" y2="0.896" gradientUnits="objectBoundingBox">
      <stop offset="0" stop-color="red" stop-opacity="0.122"/>
      <stop offset="1" stop-color="red"/>
    </linearGradient>
  </defs>
  <g id="Group_20" data-name="Group 20" transform="translate(0)">
    <g id="Group_2" data-name="Group 2" transform="translate(0 0)">
      <path id="Path_1" data-name="Path 1" d="M153.04,0H405.556A153.04,153.04,0,0,1,558.6,153.04V405.556A153.04,153.04,0,0,1,405.556,558.6H153.04A153.04,153.04,0,0,1,0,405.556V153.04A153.04,153.04,0,0,1,153.04,0Z" transform="translate(159.604 394.987) rotate(-45)" fill="url(#linear-gradient)"/>
      <path id="Path_2" data-name="Path 2" d="M107.128,0h191.3A107.128,107.128,0,0,1,405.556,107.128v191.3A107.128,107.128,0,0,1,298.428,405.556h-191.3A107.128,107.128,0,0,1,0,298.428v-191.3A107.128,107.128,0,0,1,107.128,0Z" transform="translate(0 394.987) rotate(-45)" fill="url(#linear-gradient)"/>
    </g>
    <g id="Group_1" data-name="Group 1" transform="translate(955.38 202.622)">
      <path id="Path_10" data-name="Path 10" d="M57.113,8.821,47.247,12.3A16.519,16.519,0,0,0,42.2,2.935q-4.26-4.2-11.772-4.2A16.117,16.117,0,0,0,19.443,2.542a12.006,12.006,0,0,0-4.372,9.418,10.877,10.877,0,0,0,2.635,7.4,13.71,13.71,0,0,0,7.568,4.148l11.884,2.579Q47.023,28.216,52.4,34.1A20.423,20.423,0,0,1,57.786,48.4q0,9.642-7.624,16.593T30.318,71.94q-13.341,0-20.909-7.007a26.8,26.8,0,0,1-8.8-16.649l10.539-3.363a19.113,19.113,0,0,0,5.606,12.108q4.933,4.933,13.454,4.933,7.848,0,12.108-3.588a11.364,11.364,0,0,0,4.26-9.081A11.163,11.163,0,0,0,43.547,41.5q-3.027-3.307-8.857-4.541L23.367,34.495A26.42,26.42,0,0,1,9.241,26.983Q3.971,21.377,3.971,12.745q0-9.418,7.68-16.537a26.317,26.317,0,0,1,18.555-7.119q12.22,0,18.723,5.942A25.743,25.743,0,0,1,57.113,8.821ZM87.384,57.478a16.147,16.147,0,0,0,12,5.045,15.882,15.882,0,0,0,11.94-5.1q4.877-5.1,4.877-14.182,0-8.969-4.877-14.07a16.524,16.524,0,0,0-23.88,0q-4.877,5.1-4.877,14.07Q82.563,52.321,87.384,57.478ZM79.536,22.835q7.848-8.184,19.844-8.184t19.788,8.128q7.792,8.128,7.792,20.461,0,12.445-7.736,20.573T99.38,71.94q-12.108,0-19.844-8.128T71.8,43.239Q71.8,30.907,79.536,22.835Zm77.022,47.424H146.019v-81.17h10.539Zm58.523-6.5a13.792,13.792,0,0,1-6.5,6.11,21.693,21.693,0,0,1-9.417,2.074q-9.193,0-14.687-6.11T178.98,50.3V16.332h10.539v32.4a16.067,16.067,0,0,0,2.971,9.978q2.971,3.924,9.249,3.924t9.53-3.756q3.251-3.756,3.251-10.034V16.332h10.539V60.281a84.493,84.493,0,0,0,.561,9.978h-10.09A37.789,37.789,0,0,1,215.08,63.756ZM262.729-.709V16.332h11.66v9.53h-11.66V53.89q0,3.812,1.738,5.606t5.774,1.794a17.2,17.2,0,0,0,4.148-.448V69.81a20.91,20.91,0,0,1-7.175,1.009q-6.951,0-10.987-4.036T252.19,55.46v-29.6H241.875v-9.53h2.915q4.148,0,6.222-2.3a8.61,8.61,0,0,0,2.074-6V-.709Zm41.706,70.968H294.008V16.332h10.427ZM293.784,1.309a7.537,7.537,0,0,1-2.13-5.381,7.434,7.434,0,0,1,2.186-5.381,7.156,7.156,0,0,1,5.325-2.242,7.434,7.434,0,0,1,5.381,2.186,7.287,7.287,0,0,1,2.242,5.437,7.156,7.156,0,0,1-2.242,5.325,7.434,7.434,0,0,1-5.381,2.186A7.537,7.537,0,0,1,293.784,1.309Zm45.294,56.169a16.147,16.147,0,0,0,12,5.045,15.882,15.882,0,0,0,11.94-5.1q4.877-5.1,4.877-14.182,0-8.969-4.877-14.07a16.524,16.524,0,0,0-23.88,0q-4.877,5.1-4.877,14.07Q334.257,52.321,339.078,57.478ZM331.23,22.835q7.848-8.184,19.844-8.184t19.788,8.128q7.792,8.128,7.792,20.461,0,12.445-7.736,20.573T351.074,71.94q-12.108,0-19.844-8.128t-7.736-20.573Q323.494,30.907,331.23,22.835Zm77.022,16.256V70.259H397.713V16.332h10.314v7.736q5.381-9.305,16.593-9.305,9.305,0,14.294,5.942t4.989,15.36V70.259H433.365v-32.4q0-13.566-12.557-13.566a11.1,11.1,0,0,0-9.249,4.2A16.611,16.611,0,0,0,408.251,39.091Zm53.03,17.153,9.53-3.363a11.212,11.212,0,0,0,3.812,7.231q3.251,2.859,8.745,2.859a10.126,10.126,0,0,0,6.727-2.074,6.419,6.419,0,0,0,2.467-5.1q0-5.381-6.951-6.951l-9.193-2.018a17.717,17.717,0,0,1-9.866-5.381,14.17,14.17,0,0,1-3.588-9.754,15.56,15.56,0,0,1,5.662-12,19.621,19.621,0,0,1,13.51-5.045,26.059,26.059,0,0,1,9.193,1.514,15.8,15.8,0,0,1,6.278,3.98,22.9,22.9,0,0,1,3.363,4.6,19.541,19.541,0,0,1,1.682,4.372l-9.305,3.476a11.213,11.213,0,0,0-.785-2.635,14.624,14.624,0,0,0-1.738-2.859,8.115,8.115,0,0,0-3.419-2.523,13.4,13.4,0,0,0-5.269-.953,9.647,9.647,0,0,0-6.447,2.13,6.42,6.42,0,0,0-2.523,5.045q0,5.157,6.166,6.5l8.745,1.906q7.175,1.57,11.043,5.774a14.6,14.6,0,0,1,3.868,10.258q0,6.39-5.213,11.548T483.255,71.94q-9.978,0-15.584-4.989T461.281,56.245ZM605.907,70.259H557.362V-9.23h10.987V59.944h37.558Zm27.8,0H623.284V16.332h10.427ZM623.06,1.309a7.537,7.537,0,0,1-2.13-5.381,7.434,7.434,0,0,1,2.186-5.381,7.157,7.157,0,0,1,5.325-2.242,7.434,7.434,0,0,1,5.381,2.186,7.287,7.287,0,0,1,2.242,5.437,7.156,7.156,0,0,1-2.242,5.325,7.434,7.434,0,0,1-5.381,2.186A7.537,7.537,0,0,1,623.06,1.309Zm44.621,68.95H657.255V16.332h10.09v7.175A16.237,16.237,0,0,1,674.3,17a20.791,20.791,0,0,1,9.417-2.242,18.631,18.631,0,0,1,9.642,2.579,15.589,15.589,0,0,1,6.5,7.624q5.606-10.2,18.05-10.2a18.234,18.234,0,0,1,13.173,5.269q5.438,5.269,5.438,15.247V70.259H726.092V36.4q0-5.606-2.859-8.969t-8.577-3.363a11.5,11.5,0,0,0-8.969,3.868,13.968,13.968,0,0,0-3.476,9.7V70.259H691.673V36.4q0-5.606-2.859-8.969t-8.577-3.363a11.713,11.713,0,0,0-9.081,3.812,14.075,14.075,0,0,0-3.476,9.866Zm101.687,0H758.941V16.332h10.427ZM758.717,1.309a7.537,7.537,0,0,1-2.13-5.381,7.434,7.434,0,0,1,2.186-5.381A7.156,7.156,0,0,1,764.1-11.7,7.434,7.434,0,0,1,769.48-9.51a7.286,7.286,0,0,1,2.242,5.437,7.156,7.156,0,0,1-2.242,5.325A7.434,7.434,0,0,1,764.1,3.439,7.537,7.537,0,0,1,758.717,1.309ZM807.038-.709V16.332H818.7v9.53h-11.66V53.89q0,3.812,1.738,5.606t5.774,1.794a17.2,17.2,0,0,0,4.148-.448V69.81a20.91,20.91,0,0,1-7.175,1.009q-6.951,0-10.987-4.036T796.5,55.46v-29.6H786.185v-9.53H789.1q4.148,0,6.222-2.3a8.61,8.61,0,0,0,2.074-6V-.709ZM844.6,37.746h29.486a14.34,14.34,0,0,0-4.036-9.922q-3.812-3.868-10.763-3.868a13.866,13.866,0,0,0-10.314,4.092A14.663,14.663,0,0,0,844.6,37.746ZM875.651,51.76l9.081,3.139a23.882,23.882,0,0,1-8.745,12.276,25.151,25.151,0,0,1-15.472,4.765,26.364,26.364,0,0,1-19.227-7.792q-7.9-7.792-7.9-21.021,0-12.332,7.624-20.4a24.138,24.138,0,0,1,18.162-8.072q12.22,0,19.059,7.68T885.069,42.9a21,21,0,0,1-.224,3.363H844.259a16.215,16.215,0,0,0,4.765,11.772,15.711,15.711,0,0,0,11.492,4.6Q872.064,62.635,875.651,51.76Zm34.755-8.633q0,8.521,4.2,13.9a13.91,13.91,0,0,0,11.6,5.381,13.615,13.615,0,0,0,11.323-5.494q4.26-5.494,4.26-14.014,0-8.408-4.148-13.566a13.75,13.75,0,0,0-11.323-5.157,14.264,14.264,0,0,0-11.548,5.269Q910.406,34.719,910.406,43.127Zm31.5,19.844v-.9a17.752,17.752,0,0,1-6.446,6.895,18.7,18.7,0,0,1-10.258,2.747q-11.548,0-18.555-8.128t-7.007-20.461a29.421,29.421,0,0,1,7.175-20.012,23.28,23.28,0,0,1,18.386-8.24q6.615,0,10.763,2.635a14.007,14.007,0,0,1,5.718,6.447V-10.911h10.427V60.281a80.926,80.926,0,0,0,.561,9.978h-10.2A41.874,41.874,0,0,1,941.91,62.971Z" transform="translate(-0.608 397.569)" fill="#fff"/>
      <path id="Path_9" data-name="Path 9" d="M59.35,136.212c1.282-19.234,17.525-41.461,47.017-41.461,32.485,0,46.163,20.517,47.017,41.461Zm99.592,54.711c-6.839,18.807-21.372,32.057-47.872,32.057-28.21,0-51.719-20.089-53-47.872H208.523c0-.855.855-9.4.855-17.525,0-67.534-38.9-109-103.866-109-53.856,0-103.438,43.6-103.438,110.7,0,70.954,50.864,112.414,108.568,112.414,51.719,0,85.059-30.348,95.745-66.679ZM225.621,265.3h64.115c7.266-11.541,35.477-53,43.171-64.542L376.931,265.3h66.679L367.528,158.011,441.046,55H376.5l-41.461,62.4c-7.266-11.541-34.622-50.864-41.888-62.4H225.621l74.8,104.721Zm238.507-57.276c0,32.912,27.356,63.26,72.236,63.26,31.2,0,51.292-14.533,61.978-31.2,0,8.121.855,19.662,2.137,25.218h52.147a235.49,235.49,0,0,1-2.565-33.34V128.518c0-42.316-24.791-79.93-91.47-79.93-56.421,0-86.769,36.332-90.188,69.244l50.437,10.686c1.71-18.38,15.388-34.195,40.179-34.195,23.936,0,35.477,12.4,35.477,27.356,0,7.266-3.847,13.25-15.815,14.96l-51.719,7.694C491.91,149.462,464.127,170.407,464.127,208.021Zm84.2,20.944c-18.38,0-27.356-11.968-27.356-24.364,0-16.242,11.541-24.364,26.073-26.5l47.445-7.266v9.4C594.494,217.424,572.267,228.965,548.331,228.965ZM764.184,265.3V-44.164H707.336V265.3ZM894.978-7.832H843.686V21.66C843.686,40.467,833.428,55,811.2,55H800.516v50.437h38.041v97.882c0,40.606,25.646,64.97,66.679,64.97,16.67,0,26.928-2.992,32.057-5.129V216.142c-2.992.855-10.686,1.71-17.525,1.71-16.242,0-24.791-5.984-24.791-24.364V105.437h42.316V55H894.978Z" transform="translate(8.198 44.164)" fill="#fff"/>
    </g>
  </g>
</svg>
