<svg width="414" height="414" viewBox="0 0 414 414" fill="none" xmlns="http://www.w3.org/2000/svg">
<path d="M414 0H0V414H414V0Z" fill="#FFD02F"/>
<path d="M312 312.579V286.329C312 272.405 306.469 259.051 296.623 249.206C286.777 239.36 273.424 233.829 259.5 233.829H154.5C140.576 233.829 127.222 239.36 117.377 249.206C107.531 259.051 102 272.405 102 286.329V312.579" fill="black"/>
<path d="M207 205.796C235.995 205.796 259.5 182.291 259.5 153.296C259.5 124.301 235.995 100.796 207 100.796C178.005 100.796 154.5 124.301 154.5 153.296C154.5 182.291 178.005 205.796 207 205.796Z" fill="black"/>
</svg>
